<svg xmlns="http://www.w3.org/2000/svg" width="526.9826049804688" height="81.76654815673828" viewBox="-301.6861267089844 67.03258514404297 526.9826049804688 81.76654815673828"><title>Neo4j Graph Visualization</title><desc>Created using Neo4j (http://www.neo4j.com/)</desc><g class="layer relationships"><g class="relationship" transform="translate(-272.6861384465562 108.74364659369617) rotate(359.505454307852)"><path class="outline" fill="#A5ABB6" stroke="none" d="M 21.40063509461097,12.933012701892217 L 21.90063509461097,12.06698729810778 A 146.61246279625865 146.61246279625865 0 0 0 83.00169478713214,31.200422428833505 L 82.9184469412613,32.196951302553614 A 147.61246279625865 147.61246279625865 0 0 1 21.40063509461097,12.933012701892217 Z M 102.30312849512657,32.5386627179674 L 102.25505489843995,31.53981892172014 A 146.61246279625865 146.61246279625865 0 0 0 163.99250829072702,14.57177000365378 L 162.5850090818724,11.922440658881099 L 170.40885996333904,11.729160073788465 L 165.86917390253316,18.104209130017352 L 164.46167469367856,15.454879785244673 A 147.61246279625865 147.61246279625865 0 0 1 102.30312849512657,32.5386627179674"/><text text-anchor="middle" pointer-events="none" font-size="8px" fill="#000000" x="92.61398411622359" y="35.18648102836677" font-family="sans-serif">trek</text></g><g class="relationship" transform="translate(-80.20670421165488 107.08222860007058) rotate(362.1912546049317)"><path class="outline" fill="#A5ABB6" stroke="none" d="M 25 0.5 L 54.027878546857295 0.5 L 54.027878546857295 -0.5 L 25 -0.5 Z M 73.3638160468573 0.5 L 102.39169459371459 0.5 L 102.39169459371459 3.5 L 109.39169459371459 0 L 102.39169459371459 -3.5 L 102.39169459371459 -0.5 L 73.3638160468573 -0.5 Z"/><text text-anchor="middle" pointer-events="none" font-size="8px" fill="#000000" x="63.695847296857295" y="3" font-family="sans-serif">trek</text></g><g class="relationship" transform="translate(54.086718354286276 112.220733372455) rotate(358.8976985758808)"><path class="outline" fill="#A5ABB6" stroke="none" d="M 25 0.5 L 57.950079862183344 0.5 L 57.950079862183344 -0.5 L 25 -0.5 Z M 77.28601736218334 0.5 L 110.23609722436669 0.5 L 110.23609722436669 3.5 L 117.23609722436669 0 L 110.23609722436669 -3.5 L 110.23609722436669 -0.5 L 77.28601736218334 -0.5 Z"/><text text-anchor="middle" pointer-events="none" font-size="8px" fill="#000000" x="67.61804861218334" y="3" font-family="sans-serif">trek</text></g><g class="relationship" transform="translate(-272.6861384465562 108.74364659369617) rotate(359.505454307852)"><path class="outline" fill="#A5ABB6" stroke="none" d="M 25 0.5 L 81.73744287655572 0.5 L 81.73744287655572 -0.5 L 25 -0.5 Z M 103.74916162655572 0.5 L 160.48660450311144 0.5 L 160.48660450311144 3.5 L 167.48660450311144 0 L 160.48660450311144 -3.5 L 160.48660450311144 -0.5 L 103.74916162655572 -0.5 Z"/><text text-anchor="middle" pointer-events="none" font-size="8px" fill="#000000" x="92.74330225155572" y="3" font-family="sans-serif">road</text></g><g class="relationship" transform="translate(-272.6861384465562 108.74364659369617) rotate(359.505454307852)"><path class="outline" fill="#A5ABB6" stroke="none" d="M 21.40063509461097,-12.933012701892217 L 21.90063509461097,-12.06698729810778 A 146.61246279625865 146.61246279625865 0 0 1 62.1509482039704,-27.93426186480839 L 61.92548361754771,-28.908513228815266 A 147.61246279625865 147.61246279625865 0 0 0 21.40063509461097,-12.933012701892217 Z M 123.39894959395116,-29.992161934150758 L 123.20796244715365,-29.010569396608773 A 146.61246279625865 146.61246279625865 0 0 1 163.99250829072702,-14.57177000365378 L 162.5850090818724,-11.922440658881099 L 170.40885996333904,-11.729160073788465 L 165.86917390253316,-18.104209130017352 L 164.46167469367856,-15.454879785244673 A 147.61246279625865 147.61246279625865 0 0 0 123.39894959395116,-29.992161934150758"/><text text-anchor="middle" pointer-events="none" font-size="8px" fill="#000000" x="92.61398411622353" y="-29.18648102836677" font-family="sans-serif">PublicTransport</text></g></g><g class="layer nodes"><g class="node" transform="translate(-272.6861384465562,108.74364659369617)"><circle class="outline" cx="0" cy="0" r="25" fill="#F16667" stroke="#eb2728" stroke-width="2px"/><text text-anchor="middle" pointer-events="none" font-family="sans-serif" dy="1.5625" font-size="25" fill="#FFFFFF"/><text text-anchor="middle" pointer-events="none" x="0" y="5" font-size="10px" fill="#FFFFFF" font-family="sans-serif"> Darjeeling</text></g><g class="node" transform="translate(196.2964933954015,109.48445188567595)"><circle class="outline" cx="0" cy="0" r="25" fill="#D9C8AE" stroke="#c0a378" stroke-width="2px"/><text text-anchor="middle" pointer-events="none" font-family="sans-serif" dy="1.5625" font-size="25" fill="#2A2C34"/><text text-anchor="middle" pointer-events="none" x="0" y="5" font-size="10px" fill="#2A2C34" font-family="sans-serif"> Sandak…</text></g><g class="node" transform="translate(-80.20670421165488,107.08222860007058)"><circle class="outline" cx="0" cy="0" r="25" fill="#F16667" stroke="#eb2728" stroke-width="2px"/><text text-anchor="middle" pointer-events="none" font-family="sans-serif" dy="1.5625" font-size="25" fill="#FFFFFF"/><text text-anchor="middle" pointer-events="none" x="0" y="5" font-size="10px" fill="#FFFFFF" font-family="sans-serif"> Rimbik</text></g><g class="node" transform="translate(54.086718354286276,112.220733372455)"><circle class="outline" cx="0" cy="0" r="25" fill="#8DCC93" stroke="#5db665" stroke-width="2px"/><text text-anchor="middle" pointer-events="none" font-family="sans-serif" dy="1.5625" font-size="25" fill="#2A2C34"/><text text-anchor="middle" pointer-events="none" x="0" y="5" font-size="10px" fill="#2A2C34" font-family="sans-serif"> BhikeBh…</text></g></g></svg>