<svg xmlns="http://www.w3.org/2000/svg" width="281.9930419921875" height="387.5539855957031" viewBox="-45.05890655517578 -65.52670288085938 281.9930419921875 387.5539855957031"><title>Neo4j Graph Visualization</title><desc>Created using Neo4j (http://www.neo4j.com/)</desc><g class="layer relationships"><g class="relationship" transform="translate(-14.492251360211911 -5.7662096440527275) rotate(344.5769629696456)"><path class="outline" fill="#A5ABB6" stroke="none" d="M 24.018736134675446,-6.953439040707552 L 24.277555179777966,-5.987513214418485 A 99.06887333870053 99.06887333870053 0 0 1 38.698222917889396,-8.725766933318226 L 38.58496591717199,-9.719332659271217 A 100.06887333870053 100.06887333870053 0 0 0 24.018736134675446,-6.953439040707552 Z M 57.984870172750874,-10.037562934275698 L 57.904261652569325,-9.04081709582232 A 99.06887333870053 99.06887333870053 0 0 1 72.40698164613785,-6.7770140500111875 L 71.72598524903832,-3.8553289357085765 L 79.33774631236052,-5.674969975829393 L 73.31497684227055,-10.672594202414668 L 72.63398044517102,-7.750909088112058 A 100.06887333870053 100.06887333870053 0 0 0 57.984870172750874,-10.037562934275698"/><text text-anchor="middle" pointer-events="none" font-size="8px" fill="#000000" x="48.28538781340067" y="-6.849809846649862" font-family="sans-serif">trek</text></g><g class="relationship" transform="translate(85.45901968394001 -33.34061799204938) rotate(358.39407834811595)"><path class="outline" fill="#A5ABB6" stroke="none" d="M 21.40063509461097,-12.933012701892217 L 21.90063509461097,-12.06698729810778 A 66.37642010192623 66.37642010192623 0 0 1 42.30615370836375,-19.71727513551319 L 42.11357490677154,-20.698556647199467 A 67.37642010192623 67.37642010192623 0 0 0 21.40063509461097,-12.933012701892217 Z M 64.18047458258425,-21.343520947220114 L 64.04553673009437,-20.35266688331089 A 66.37642010192623 66.37642010192623 0 0 1 84.86304061682871,-13.907232389255018 L 83.51734305922312,-11.225983038028172 L 91.34357202929228,-11.214146313379812 L 86.65730402696948,-17.482231524224147 L 85.3116064693639,-14.800982172997301 A 67.37642010192623 67.37642010192623 0 0 0 64.18047458258425,-21.343520947220114"/><text text-anchor="middle" pointer-events="none" font-size="8px" fill="#000000" x="53.13503683501697" y="-18.43119483189581" font-family="sans-serif">road</text></g><g class="relationship" transform="translate(199.10168264996895 -36.526699424396604) rotate(458.1325910009514)"><path class="outline" fill="#A5ABB6" stroke="none" d="M 21.40063509461097,12.933012701892217 L 21.90063509461097,12.06698729810778 A 67.65446630178302 67.65446630178302 0 0 0 44.23033338757325,20.14683530449456 L 44.06038843809065,21.13228886207368 A 68.65446630178302 68.65446630178302 0 0 1 21.40063509461097,12.933012701892217 Z M 63.46480434116453,21.693621548457855 L 63.35211049162453,20.699991790310563 A 67.65446630178302 67.65446630178302 0 0 0 86.11154578529431,13.924486290770869 L 84.76424326999869,11.244043056475824 L 92.59046375119868,11.22752096079691 L 87.90794913902182,17.49841060316426 L 86.5606466237262,14.817967368869216 A 68.65446630178302 68.65446630178302 0 0 1 63.46480434116453,21.693621548457855"/><text text-anchor="middle" pointer-events="none" font-size="8px" fill="#000000" x="53.75711414681623" y="24.602467988279486" transform="rotate(180 53.75711414681623 21.602467988279486)" font-family="sans-serif">trek</text></g><g class="relationship" transform="translate(182.84353934719988 77.24500573899579) rotate(437.72639373556)"><path class="outline" fill="#A5ABB6" stroke="none" d="M 25 0.5 L 45.84645732229793 0.5 L 45.84645732229793 -0.5 L 25 -0.5 Z M 65.18239482229794 0.5 L 86.02885214459586 0.5 L 86.02885214459586 3.5 L 93.02885214459586 0 L 86.02885214459586 -3.5 L 86.02885214459586 -0.5 L 65.18239482229794 -0.5 Z"/><text text-anchor="middle" pointer-events="none" font-size="8px" fill="#000000" x="55.51442607229793" y="3" font-family="sans-serif">trek</text></g><g class="relationship" transform="translate(-14.492251360211911 -5.7662096440527275) rotate(344.5769629696456)"><path class="outline" fill="#A5ABB6" stroke="none" d="M 24.018736134675446,6.953439040707552 L 24.277555179777966,5.987513214418485 A 99.06887333870053 99.06887333870053 0 0 0 37.37666852063881,8.566121204853772 L 37.250071765943055,9.55807546876946 A 100.06887333870053 100.06887333870053 0 0 1 24.018736134675446,6.953439040707552 Z M 59.32433513370136,9.920175137381108 L 59.23034118290327,8.924602368964173 A 99.06887333870053 99.06887333870053 0 0 0 72.40698164613785,6.7770140500111875 L 71.72598524903832,3.8553289357085765 L 79.33774631236052,5.674969975829393 L 73.31497684227055,10.672594202414668 L 72.63398044517102,7.750909088112058 A 100.06887333870053 100.06887333870053 0 0 1 59.32433513370136,9.920175137381108"/><text text-anchor="middle" pointer-events="none" font-size="8px" fill="#000000" x="48.28538781340068" y="12.849809846649862" font-family="sans-serif">road</text></g><g class="relationship" transform="translate(85.45901968394001 -33.34061799204938) rotate(358.39407834811595)"><path class="outline" fill="#A5ABB6" stroke="none" d="M 25 0.5 L 43.67568956142466 0.5 L 43.67568956142466 -0.5 L 25 -0.5 Z M 63.01162706142466 0.5 L 81.68731662284932 0.5 L 81.68731662284932 3.5 L 88.68731662284932 0 L 81.68731662284932 -3.5 L 81.68731662284932 -0.5 L 63.01162706142466 -0.5 Z"/><text text-anchor="middle" pointer-events="none" font-size="8px" fill="#000000" x="53.34365831142466" y="3" font-family="sans-serif">trek</text></g><g class="relationship" transform="translate(85.45901968394001 -33.34061799204938) rotate(358.39407834811595)"><path class="outline" fill="#A5ABB6" stroke="none" d="M 21.40063509461097,12.933012701892217 L 21.90063509461097,12.06698729810778 A 66.37642010192623 66.37642010192623 0 0 0 30.677411957994398,16.30779839383179 L 30.309639288873434,17.237714123265185 A 67.37642010192623 67.37642010192623 0 0 1 21.40063509461097,12.933012701892217 Z M 76.16639234516254,18.578000664223488 L 75.85355964838669,17.628192418403337 A 66.37642010192623 66.37642010192623 0 0 0 84.86304061682871,13.907232389255018 L 83.51734305922312,11.225983038028172 L 91.34357202929228,11.214146313379812 L 86.65730402696948,17.482231524224147 L 85.3116064693639,14.800982172997301 A 67.37642010192623 67.37642010192623 0 0 1 76.16639234516254,18.578000664223488"/><text text-anchor="middle" pointer-events="none" font-size="8px" fill="#000000" x="53.13503683501696" y="24.43119483189581" font-family="sans-serif">twowheeler</text></g><g class="relationship" transform="translate(199.10168264996895 -36.526699424396604) rotate(458.1325910009514)"><path class="outline" fill="#A5ABB6" stroke="none" d="M 25 0.5 L 30.731323476828706 0.5 L 30.731323476828706 -0.5 L 25 -0.5 Z M 77.1961672268287 0.5 L 82.92749070365741 0.5 L 82.92749070365741 3.5 L 89.92749070365741 0 L 82.92749070365741 -3.5 L 82.92749070365741 -0.5 L 77.1961672268287 -0.5 Z"/><text text-anchor="middle" pointer-events="none" font-size="8px" fill="#000000" x="53.963745351828706" y="3" transform="rotate(180 53.963745351828706 0)" font-family="sans-serif">twowheeler</text></g><g class="relationship" transform="translate(199.10168264996895 -36.526699424396604) rotate(458.1325910009514)"><path class="outline" fill="#A5ABB6" stroke="none" d="M 21.40063509461097,-12.933012701892217 L 21.90063509461097,-12.06698729810778 A 67.65446630178302 67.65446630178302 0 0 1 42.92387592650735,-19.908304865861382 L 42.734620242161526,-20.890232707376626 A 68.65446630178302 68.65446630178302 0 0 0 21.40063509461097,-12.933012701892217 Z M 64.80234823034759,-21.528609925009917 L 64.67017212479087,-20.537383675801465 A 67.65446630178302 67.65446630178302 0 0 1 86.11154578529431,-13.924486290770869 L 84.76424326999869,-11.244043056475824 L 92.59046375119868,-11.22752096079691 L 87.90794913902182,-17.49841060316426 L 86.5606466237262,-14.817967368869216 A 68.65446630178302 68.65446630178302 0 0 0 64.80234823034759,-21.528609925009917"/><text text-anchor="middle" pointer-events="none" font-size="8px" fill="#000000" x="53.75711414681623" y="-18.602467988279486" transform="rotate(180 53.75711414681623 -21.602467988279486)" font-family="sans-serif">road</text></g><g class="relationship" transform="translate(-14.492251360211911 -5.7662096440527275) rotate(412.21864073067184)"><path class="outline" fill="#A5ABB6" stroke="none" d="M 21.40063509461097,12.933012701892217 L 21.90063509461097,12.06698729810778 A 70.21700136626828 70.21700136626828 0 0 0 44.16406898309138,20.289385476276436 L 43.981135127405196,21.2725106994519 A 71.21700136626828 71.21700136626828 0 0 1 21.40063509461097,12.933012701892217 Z M 66.05024323767692,21.898059349910582 L 65.92329170522706,20.90615042848249 A 70.21700136626828 70.21700136626828 0 0 0 88.61673310053166,13.958054434257674 L 87.26630813046292,11.279182955404156 L 95.09250404620133,11.253541417239528 L 90.41729972728997,17.52988307272903 L 89.06687475722123,14.851011593875514 A 71.21700136626828 71.21700136626828 0 0 1 66.05024323767692,21.898059349910582"/><text text-anchor="middle" pointer-events="none" font-size="8px" fill="#000000" x="55.00546782587543" y="24.945890431026598" font-family="sans-serif">road</text></g><g class="relationship" transform="translate(57.442920528657794 87.03438190777013) rotate(355.5362683545935)"><path class="outline" fill="#A5ABB6" stroke="none" d="M 25 0.5 L 49.723101931470865 0.5 L 49.723101931470865 -0.5 L 25 -0.5 Z M 69.05903943147086 0.5 L 93.78214136294173 0.5 L 93.78214136294173 3.5 L 100.78214136294173 0 L 93.78214136294173 -3.5 L 93.78214136294173 -0.5 L 69.05903943147086 -0.5 Z"/><text text-anchor="middle" pointer-events="none" font-size="8px" fill="#000000" x="59.391070681470865" y="3" font-family="sans-serif">trek</text></g><g class="relationship" transform="translate(-14.492251360211911 -5.7662096440527275) rotate(412.21864073067184)"><path class="outline" fill="#A5ABB6" stroke="none" d="M 25 0.5 L 45.54024776832366 0.5 L 45.54024776832366 -0.5 L 25 -0.5 Z M 64.87618526832367 0.5 L 85.41643303664732 0.5 L 85.41643303664732 3.5 L 92.41643303664732 0 L 85.41643303664732 -3.5 L 85.41643303664732 -0.5 L 64.87618526832367 -0.5 Z"/><text text-anchor="middle" pointer-events="none" font-size="8px" fill="#000000" x="55.20821651832366" y="3" font-family="sans-serif">trek</text></g><g class="relationship" transform="translate(-14.492251360211911 -5.7662096440527275) rotate(412.21864073067184)"><path class="outline" fill="#A5ABB6" stroke="none" d="M 21.40063509461097,-12.933012701892217 L 21.90063509461097,-12.06698729810778 A 70.21700136626828 70.21700136626828 0 0 1 25.536599240981072,-14.025956640207681 L 25.08838106127562,-14.919880833515776 A 71.21700136626828 71.21700136626828 0 0 0 21.40063509461097,-12.933012701892217 Z M 85.27250469539374,-16.625799220894535 L 84.87564203092558,-15.707921219441587 A 70.21700136626828 70.21700136626828 0 0 1 88.61673310053166,-13.958054434257674 L 87.26630813046292,-11.279182955404156 L 95.09250404620133,-11.253541417239528 L 90.41729972728997,-17.52988307272903 L 89.06687475722123,-14.851011593875514 A 71.21700136626828 71.21700136626828 0 0 0 85.27250469539374,-16.625799220894535"/><text text-anchor="middle" pointer-events="none" font-size="8px" fill="#000000" x="55.00546782587541" y="-18.945890431026598" font-family="sans-serif">PublicTransport</text></g><g class="relationship" transform="translate(57.442920528657794 87.03438190777013) rotate(489.35098358858943)"><path class="outline" fill="#A5ABB6" stroke="none" d="M 24.018736134675446,-6.953439040707552 L 24.277555179777966,-5.987513214418485 A 123.49113287073224 123.49113287073224 0 0 1 44.80329431273918,-9.664700203715483 L 44.71068751831256,-10.660402961382658 A 124.49113287073224 124.49113287073224 0 0 0 24.018736134675446,-6.953439040707552 Z M 64.1028175055155,-10.946779767040397 L 64.0396531254012,-9.948776630229318 A 123.49113287073224 123.49113287073224 0 0 1 84.66502489691048,-6.8792961537221045 L 83.97447460472092,-3.959854375923321 L 91.59214742713924,-5.754585768246274 L 85.58575861982989,-10.771885190787149 L 84.89520832764033,-7.852443412988365 A 124.49113287073224 124.49113287073224 0 0 0 64.1028175055155,-10.946779767040397"/><text text-anchor="middle" pointer-events="none" font-size="8px" fill="#000000" x="54.40855029838655" y="-7.681853471073737" transform="rotate(180 54.40855029838655 -10.681853471073737)" font-family="sans-serif">trek</text></g><g class="relationship" transform="translate(-16.058907783229117 176.67321171780384) rotate(375.456574764154)"><path class="outline" fill="#A5ABB6" stroke="none" d="M 24.018736134675446,-6.953439040707552 L 24.277555179777966,-5.987513214418485 A 117.22647853751563 117.22647853751563 0 0 1 43.232469113821466,-9.42769304329191 L 43.135344885201704,-10.422965309666793 A 118.22647853751563 118.22647853751563 0 0 0 24.018736134675446,-6.953439040707552 Z M 62.52935846288974,-10.71690955061365 L 62.462441490100176,-9.719151003292367 A 117.22647853751563 117.22647853751563 0 0 1 81.51290668636545,-6.85499749695424 L 80.82462601958326,-3.9350198046192704 L 88.44090141294409,-5.7356722231849515 L 82.43061424207505,-10.748301086734202 L 81.74233357529286,-7.828323394399231 A 118.22647853751563 118.22647853751563 0 0 0 62.52935846288974,-10.71690955061365"/><text text-anchor="middle" pointer-events="none" font-size="8px" fill="#000000" x="52.83389078682612" y="-7.468389006995594" font-family="sans-serif">trek</text></g><g class="relationship" transform="translate(92.6364104587548 206.72839240410173) rotate(353.00221927118014)"><path class="outline" fill="#A5ABB6" stroke="none" d="M 24.018736134675446,6.953439040707552 L 24.277555179777966,5.987513214418485 A 123.97293109418331 123.97293109418331 0 0 0 44.924222550230674,9.682838938560124 L 44.83194524281416,10.678572285664643 A 124.97293109418331 124.97293109418331 0 0 1 24.018736134675446,6.953439040707552 Z M 64.2239339653127,10.964382710412522 L 64.16104176079799,9.966362384661949 A 123.97293109418331 123.97293109418331 0 0 0 84.90764517012686,6.881114794979373 L 84.2169250082157,3.9617132025413926 L 91.83470224613401,5.756001349259664 L 85.8286053860084,10.773650251563348 L 85.13788522409725,7.854248659125368 A 124.97293109418331 124.97293109418331 0 0 1 64.2239339653127,10.964382710412522"/><text text-anchor="middle" pointer-events="none" font-size="8px" fill="#000000" x="54.52975548966634" y="13.698271239330282" font-family="sans-serif">trek</text></g><g class="relationship" transform="translate(57.442920528657794 87.03438190777013) rotate(489.35098358858943)"><path class="outline" fill="#A5ABB6" stroke="none" d="M 24.018736134675446,6.953439040707552 L 24.277555179777966,5.987513214418485 A 123.49113287073224 123.49113287073224 0 0 0 31.446776652440178,7.681034435786543 L 31.246012151870556,8.660673969141044 A 124.49113287073224 124.49113287073224 0 0 1 24.018736134675446,6.953439040707552 Z M 77.62067112560185,9.345520177841578 L 77.4489218743536,8.360379479922912 A 123.49113287073224 123.49113287073224 0 0 0 84.66502489691048,6.8792961537221045 L 83.97447460472092,3.959854375923321 L 91.59214742713924,5.754585768246274 L 85.58575861982989,10.771885190787149 L 84.89520832764033,7.852443412988365 A 124.49113287073224 124.49113287073224 0 0 1 77.62067112560185,9.345520177841578"/><text text-anchor="middle" pointer-events="none" font-size="8px" fill="#000000" x="54.408550298386565" y="13.681853471073737" transform="rotate(180 54.408550298386565 10.681853471073737)" font-family="sans-serif">twowheeler</text></g><g class="relationship" transform="translate(-16.058907783229117 176.67321171780384) rotate(375.456574764154)"><path class="outline" fill="#A5ABB6" stroke="none" d="M 24.018736134675446,6.953439040707552 L 24.277555179777966,5.987513214418485 A 117.22647853751563 117.22647853751563 0 0 0 29.894698814072807,7.345157481546437 L 29.68379678997418,8.322664686753185 A 118.22647853751563 118.22647853751563 0 0 1 24.018736134675446,6.953439040707552 Z M 76.03837940626245,9.025235227243485 L 75.85719851298332,8.041785440060337 A 117.22647853751563 117.22647853751563 0 0 0 81.51290668636545,6.85499749695424 L 80.82462601958326,3.9350198046192704 L 88.44090141294409,5.7356722231849515 L 82.43061424207505,10.748301086734202 L 81.74233357529286,7.828323394399231 A 118.22647853751563 118.22647853751563 0 0 1 76.03837940626245,9.025235227243485"/><text text-anchor="middle" pointer-events="none" font-size="8px" fill="#000000" x="52.83389078682615" y="13.468389006995594" font-family="sans-serif">twowheeler</text></g><g class="relationship" transform="translate(92.6364104587548 206.72839240410173) rotate(353.00221927118014)"><path class="outline" fill="#A5ABB6" stroke="none" d="M 24.018736134675446,-6.953439040707552 L 24.277555179777966,-5.987513214418485 A 123.97293109418331 123.97293109418331 0 0 1 31.566369644933932,-7.706382502710994 L 31.36634419614978,-8.686173204768693 A 124.97293109418331 124.97293109418331 0 0 0 24.018736134675446,-6.953439040707552 Z M 77.74240365155316,-9.369690580977931 L 77.57134026494421,-8.384430555521774 A 123.97293109418331 123.97293109418331 0 0 1 84.90764517012686,-6.881114794979373 L 84.2169250082157,-3.9617132025413926 L 91.83470224613401,-5.756001349259664 L 85.8286053860084,-10.773650251563348 L 85.13788522409725,-7.854248659125368 A 124.97293109418331 124.97293109418331 0 0 0 77.74240365155316,-9.369690580977931"/><text text-anchor="middle" pointer-events="none" font-size="8px" fill="#000000" x="54.52975548966633" y="-7.698271239330282" font-family="sans-serif">twowheeler</text></g><g class="relationship" transform="translate(57.442920528657794 87.03438190777013) rotate(283.1017876682729)"><path class="outline" fill="#A5ABB6" stroke="none" d="M 25 0.5 L 48.628152513312614 0.5 L 48.628152513312614 -0.5 L 25 -0.5 Z M 67.96409001331261 0.5 L 91.59224252662523 0.5 L 91.59224252662523 3.5 L 98.59224252662523 0 L 91.59224252662523 -3.5 L 91.59224252662523 -0.5 L 67.96409001331261 -0.5 Z"/><text text-anchor="middle" pointer-events="none" font-size="8px" fill="#000000" x="58.296121263312614" y="3" font-family="sans-serif">trek</text></g><g class="relationship" transform="translate(-16.058907783229117 176.67321171780384) rotate(430.67718478581384)"><path class="outline" fill="#A5ABB6" stroke="none" d="M 24.018736134675446,-6.953439040707552 L 24.277555179777966,-5.987513214418485 A 119.05954332038695 119.05954332038695 0 0 1 30.3482556600129,-7.444692227072366 L 30.14042539171006,-8.422857131154075 A 120.05954332038695 120.05954332038695 0 0 0 24.018736134675446,-6.953439040707552 Z M 76.50126228460365,-9.120154418192811 L 76.32294385026503,-8.1361815852472 A 119.05954332038695 119.05954332038695 0 0 1 82.43472224422547,-6.862235016994799 L 81.7457655510603,-3.942416756393136 L 89.3624576344902,-5.741305776376363 L 83.35333116844568,-10.75532603113035 L 82.66437447528051,-7.835507770528687 A 120.05954332038695 120.05954332038695 0 0 0 76.50126228460365,-9.120154418192811"/><text text-anchor="middle" pointer-events="none" font-size="8px" fill="#000000" x="53.294382187032305" y="-7.530847614238056" font-family="sans-serif">twowheeler</text></g><g class="relationship" transform="translate(21.56141280290395 283.96300611446844) rotate(312.6217502670059)"><path class="outline" fill="#A5ABB6" stroke="none" d="M 21.40063509461097,12.933012701892217 L 21.90063509461097,12.06698729810778 A 57.358462615579455 57.358462615579455 0 0 0 26.509717893890997,14.456727859591808 L 26.09007365290376,15.364416523730696 A 58.358462615579455 58.358462615579455 0 0 1 21.40063509461097,12.933012701892217 Z M 71.68451470358058,16.801777136213886 L 71.32287652198211,15.869458614671942 A 57.358462615579455 57.358462615579455 0 0 0 76.0733303357924,13.774776594728056 L 74.73995443426672,11.08737846545309 L 82.56615528768828,11.111465846047302 L 77.85116487115998,17.35797410042801 L 76.5177889696343,14.670575971153045 A 58.358462615579455 58.358462615579455 0 0 1 71.68451470358058,16.801777136213886"/><text text-anchor="middle" pointer-events="none" font-size="8px" fill="#000000" x="48.7567893042875" y="23.222835132716177" font-family="sans-serif">twowheeler</text></g><g class="relationship" transform="translate(-16.058907783229117 176.67321171780384) rotate(430.67718478581384)"><path class="outline" fill="#A5ABB6" stroke="none" d="M 24.018736134675446,6.953439040707552 L 24.277555179777966,5.987513214418485 A 119.05954332038695 119.05954332038695 0 0 0 43.69179170570382,9.497273093767944 L 43.596035914369054,10.492677950309172 A 120.05954332038695 120.05954332038695 0 0 1 24.018736134675446,6.953439040707552 Z M 62.9894894415894,10.784368166387125 L 62.923713271441784,9.78653376357235 A 119.05954332038695 119.05954332038695 0 0 0 82.43472224422547,6.862235016994799 L 81.7457655510603,3.942416756393136 L 89.3624576344902,5.741305776376363 L 83.35333116844568,10.75532603113035 L 82.66437447528051,7.835507770528687 A 120.05954332038695 120.05954332038695 0 0 1 62.9894894415894,10.784368166387125"/><text text-anchor="middle" pointer-events="none" font-size="8px" fill="#000000" x="53.294382187032355" y="13.530847614238056" font-family="sans-serif">trek</text></g><g class="relationship" transform="translate(21.56141280290395 283.96300611446844) rotate(312.6217502670059)"><path class="outline" fill="#A5ABB6" stroke="none" d="M 25 0.5 L 37.97471047415648 0.5 L 37.97471047415648 -0.5 L 25 -0.5 Z M 59.98642922415648 0.5 L 72.96113969831296 0.5 L 72.96113969831296 3.5 L 79.96113969831296 0 L 72.96113969831296 -3.5 L 72.96113969831296 -0.5 L 59.98642922415648 -0.5 Z"/><text text-anchor="middle" pointer-events="none" font-size="8px" fill="#000000" x="48.98056984915648" y="3" font-family="sans-serif">road</text></g><g class="relationship" transform="translate(21.56141280290395 283.96300611446844) rotate(312.6217502670059)"><path class="outline" fill="#A5ABB6" stroke="none" d="M 21.40063509461097,-12.933012701892217 L 21.90063509461097,-12.06698729810778 A 57.358462615579455 57.358462615579455 0 0 1 39.26257282207388,-18.623983632282204 L 39.06526464705921,-19.6043251462825 A 58.358462615579455 58.358462615579455 0 0 0 21.40063509461097,-12.933012701892217 Z M 58.468028051450915,-20.215995500126844 L 58.33286065163418,-19.22517272383091 A 57.358462615579455 57.358462615579455 0 0 1 76.0733303357924,-13.774776594728056 L 74.73995443426672,-11.08737846545309 L 82.56615528768828,-11.111465846047302 L 77.85116487115998,-17.35797410042801 L 76.5177889696343,-14.670575971153045 A 58.358462615579455 58.358462615579455 0 0 0 58.468028051450915,-20.215995500126844"/><text text-anchor="middle" pointer-events="none" font-size="8px" fill="#000000" x="48.756789304287494" y="-17.222835132716177" font-family="sans-serif">trek</text></g><g class="relationship" transform="translate(21.56141280290395 283.96300611446844) rotate(364.2418991632421)"><path class="outline" fill="#A5ABB6" stroke="none" d="M 25 0.5 L 48.10415643190775 0.5 L 48.10415643190775 -0.5 L 25 -0.5 Z M 67.44009393190774 0.5 L 90.5442503638155 0.5 L 90.5442503638155 3.5 L 97.5442503638155 0 L 90.5442503638155 -3.5 L 90.5442503638155 -0.5 L 67.44009393190774 -0.5 Z"/><text text-anchor="middle" pointer-events="none" font-size="8px" fill="#000000" x="57.77212518190775" y="3" font-family="sans-serif">trek</text></g><g class="relationship" transform="translate(143.76997194887838 293.02729696893465) rotate(302.56881069674205)"><path class="outline" fill="#A5ABB6" stroke="none" d="M 25 0.5 L 46.429588626469844 0.5 L 46.429588626469844 -0.5 L 25 -0.5 Z M 65.76552612646984 0.5 L 87.19511475293969 0.5 L 87.19511475293969 3.5 L 94.19511475293969 0 L 87.19511475293969 -3.5 L 87.19511475293969 -0.5 L 65.76552612646984 -0.5 Z"/><text text-anchor="middle" pointer-events="none" font-size="8px" fill="#000000" x="56.097557376469844" y="3" font-family="sans-serif">trek</text></g></g><g class="layer nodes"><g class="node" transform="translate(-14.492251360211911,-5.7662096440527275)"><circle class="outline" cx="0" cy="0" r="25" fill="#F16667" stroke="#eb2728" stroke-width="2px"/><text text-anchor="middle" pointer-events="none" font-family="sans-serif" dy="1.5625" font-size="25" fill="#FFFFFF"/><text text-anchor="middle" pointer-events="none" x="0" y="5" font-size="10px" fill="#FFFFFF" font-family="sans-serif"> Darjeeling</text></g><g class="node" transform="translate(207.93414581140277,192.5761437973249)"><circle class="outline" cx="0" cy="0" r="25" fill="#D9C8AE" stroke="#c0a378" stroke-width="2px"/><text text-anchor="middle" pointer-events="none" font-family="sans-serif" dy="1.5625" font-size="25" fill="#2A2C34"/><text text-anchor="middle" pointer-events="none" x="0" y="5" font-size="10px" fill="#2A2C34" font-family="sans-serif"> Sandak…</text></g><g class="node" transform="translate(85.45901968394001,-33.34061799204938)"><circle class="outline" cx="0" cy="0" r="25" fill="#8DCC93" stroke="#5db665" stroke-width="2px"/><text text-anchor="middle" pointer-events="none" font-family="sans-serif" dy="1.5625" font-size="25" fill="#2A2C34"/><text text-anchor="middle" pointer-events="none" x="0" y="5" font-size="10px" fill="#2A2C34" font-family="sans-serif"> Tumbling</text></g><g class="node" transform="translate(199.10168264996895,-36.526699424396604)"><circle class="outline" cx="0" cy="0" r="25" fill="#8DCC93" stroke="#5db665" stroke-width="2px"/><text text-anchor="middle" pointer-events="none" font-family="sans-serif" dy="1.5625" font-size="25" fill="#2A2C34"/><text text-anchor="middle" pointer-events="none" x="0" y="5" font-size="10px" fill="#2A2C34" font-family="sans-serif"> Gairibus</text></g><g class="node" transform="translate(182.84353934719988,77.24500573899579)"><circle class="outline" cx="0" cy="0" r="25" fill="#8DCC93" stroke="#5db665" stroke-width="2px"/><text text-anchor="middle" pointer-events="none" font-family="sans-serif" dy="1.5625" font-size="25" fill="#2A2C34"/><text text-anchor="middle" pointer-events="none" x="0" y="5" font-size="10px" fill="#2A2C34" font-family="sans-serif"> BhikeBh…</text></g><g class="node" transform="translate(57.442920528657794,87.03438190777013)"><circle class="outline" cx="0" cy="0" r="25" fill="#F16667" stroke="#eb2728" stroke-width="2px"/><text text-anchor="middle" pointer-events="none" font-family="sans-serif" dy="1.5625" font-size="25" fill="#FFFFFF"/><text text-anchor="middle" pointer-events="none" x="0" y="5" font-size="10px" fill="#FFFFFF" font-family="sans-serif"> Rimbik</text></g><g class="node" transform="translate(-16.058907783229117,176.67321171780384)"><circle class="outline" cx="0" cy="0" r="25" fill="#8DCC93" stroke="#5db665" stroke-width="2px"/><text text-anchor="middle" pointer-events="none" font-family="sans-serif" dy="1.5625" font-size="25" fill="#2A2C34"/><text text-anchor="middle" pointer-events="none" x="0" y="5" font-size="10px" fill="#2A2C34" font-family="sans-serif"> Sirikhola</text></g><g class="node" transform="translate(92.6364104587548,206.72839240410173)"><circle class="outline" cx="0" cy="0" r="25" fill="#8DCC93" stroke="#5db665" stroke-width="2px"/><text text-anchor="middle" pointer-events="none" font-family="sans-serif" dy="1.5625" font-size="25" fill="#2A2C34"/><text text-anchor="middle" pointer-events="none" x="0" y="5" font-size="10px" fill="#2A2C34" font-family="sans-serif"> Gurdum</text></g><g class="node" transform="translate(21.56141280290395,283.96300611446844)"><circle class="outline" cx="0" cy="0" r="25" fill="#8DCC93" stroke="#5db665" stroke-width="2px"/><text text-anchor="middle" pointer-events="none" font-family="sans-serif" dy="1.5625" font-size="25" fill="#2A2C34"/><text text-anchor="middle" pointer-events="none" x="0" y="5" font-size="10px" fill="#2A2C34" font-family="sans-serif"> Rammam</text></g><g class="node" transform="translate(143.76997194887838,293.02729696893465)"><circle class="outline" cx="0" cy="0" r="25" fill="#D9C8AE" stroke="#c0a378" stroke-width="2px"/><text text-anchor="middle" pointer-events="none" font-family="sans-serif" dy="1.5625" font-size="25" fill="#2A2C34"/><text text-anchor="middle" pointer-events="none" x="0" y="5" font-size="10px" fill="#2A2C34" font-family="sans-serif"> Sabargr…</text></g></g></svg>