<svg xmlns="http://www.w3.org/2000/svg" width="461.950439453125" height="75.52110290527344" viewBox="-288.124755859375 63.06380844116211 461.950439453125 75.52110290527344"><title>Neo4j Graph Visualization</title><desc>Created using Neo4j (http://www.neo4j.com/)</desc><g class="layer relationships"><g class="relationship" transform="translate(-259.1247569149765 101.08422958549619) rotate(359.82701943454356)"><path class="outline" fill="#A5ABB6" stroke="none" d="M 21.40063509461097,12.933012701892217 L 21.90063509461097,12.06698729810778 A 126.79382440667355 126.79382440667355 0 0 0 73.20657498025636,28.476328738998745 L 73.11121566465664,29.471771655960012 A 127.79382440667355 127.79382440667355 0 0 1 21.40063509461097,12.933012701892217 Z M 92.50073833573052,29.850970698465787 L 92.444372614842,28.85256050946093 A 126.79382440667355 126.79382440667355 0 0 0 144.35266773851754,14.461770002105379 L 142.95539652163654,11.807032134353484 L 150.77993463275214,11.643926807341682 L 146.21569602769222,18.001420492441238 L 144.81842481081122,15.346682624689343 A 127.79382440667355 127.79382440667355 0 0 1 92.50073833573052,29.850970698465787"/><text text-anchor="middle" pointer-events="none" font-size="8px" fill="#000000" x="82.80855007601099" y="32.529802511937504" font-family="sans-serif">trek</text></g><g class="relationship" transform="translate(-86.22279470804197 100.56222307268494) rotate(359.8270193603978)"><path class="outline" fill="#A5ABB6" stroke="none" d="M 25 0.5 L 47.7225526269474 0.5 L 47.7225526269474 -0.5 L 25 -0.5 Z M 67.05849012694739 0.5 L 89.7810427538948 0.5 L 89.7810427538948 3.5 L 96.7810427538948 0 L 89.7810427538948 -3.5 L 89.7810427538948 -0.5 L 67.05849012694739 -0.5 Z"/><text text-anchor="middle" pointer-events="none" font-size="8px" fill="#000000" x="57.3905213769474" y="3" font-family="sans-serif">trek</text></g><g class="relationship" transform="translate(35.5576930380419 100.19455671324044) rotate(359.82701970257085)"><path class="outline" fill="#A5ABB6" stroke="none" d="M 25 0.5 L 41.46627770800444 0.5 L 41.46627770800444 -0.5 L 25 -0.5 Z M 60.80221520800444 0.5 L 77.26849291600888 0.5 L 77.26849291600888 3.5 L 84.26849291600888 0 L 77.26849291600888 -3.5 L 77.26849291600888 -0.5 L 60.80221520800444 -0.5 Z"/><text text-anchor="middle" pointer-events="none" font-size="8px" fill="#000000" x="51.13424645800444" y="3" font-family="sans-serif">trek</text></g><g class="relationship" transform="translate(-259.1247569149765 101.08422958549619) rotate(359.82701943454356)"><path class="outline" fill="#A5ABB6" stroke="none" d="M 25 0.5 L 71.9455157236756 0.5 L 71.9455157236756 -0.5 L 25 -0.5 Z M 93.9572344736756 0.5 L 140.9027501973512 0.5 L 140.9027501973512 3.5 L 147.9027501973512 0 L 140.9027501973512 -3.5 L 140.9027501973512 -0.5 L 93.9572344736756 -0.5 Z"/><text text-anchor="middle" pointer-events="none" font-size="8px" fill="#000000" x="82.9513750986756" y="3" font-family="sans-serif">road</text></g><g class="relationship" transform="translate(-259.1247569149765 101.08422958549619) rotate(359.82701943454356)"><path class="outline" fill="#A5ABB6" stroke="none" d="M 21.40063509461097,-12.933012701892217 L 21.90063509461097,-12.06698729810778 A 126.79382440667355 126.79382440667355 0 0 1 52.454921809947194,-24.726782622417062 L 52.19589795258122,-25.69265354615132 A 127.79382440667355 127.79382440667355 0 0 0 21.40063509461097,-12.933012701892217 Z M 113.54782228629446,-26.892507269107483 L 113.32676093908532,-25.917247364892162 A 126.79382440667355 126.79382440667355 0 0 1 144.35266773851754,-14.461770002105379 L 142.95539652163654,-11.807032134353484 L 150.77993463275214,-11.643926807341682 L 146.21569602769222,-18.001420492441238 L 144.81842481081122,-15.346682624689343 A 127.79382440667355 127.79382440667355 0 0 0 113.54782228629446,-26.892507269107483"/><text text-anchor="middle" pointer-events="none" font-size="8px" fill="#000000" x="82.80855007601096" y="-26.529802511937504" font-family="sans-serif">PublicTransport</text></g></g><g class="layer nodes"><g class="node" transform="translate(-259.1247569149765,101.08422958549619)"><circle class="outline" cx="0" cy="0" r="25" fill="#F16667" stroke="#eb2728" stroke-width="2px"/><text text-anchor="middle" pointer-events="none" font-family="sans-serif" dy="1.5625" font-size="25" fill="#FFFFFF"/><text text-anchor="middle" pointer-events="none" x="0" y="5" font-size="10px" fill="#FFFFFF" font-family="sans-serif"> Darjeeling</text></g><g class="node" transform="translate(144.82568797320118,99.86466735923831)"><circle class="outline" cx="0" cy="0" r="25" fill="#D9C8AE" stroke="#c0a378" stroke-width="2px"/><text text-anchor="middle" pointer-events="none" font-family="sans-serif" dy="1.5625" font-size="25" fill="#2A2C34"/><text text-anchor="middle" pointer-events="none" x="0" y="5" font-size="10px" fill="#2A2C34" font-family="sans-serif"> Sandak…</text></g><g class="node" transform="translate(-86.22279470804197,100.56222307268494)"><circle class="outline" cx="0" cy="0" r="25" fill="#F16667" stroke="#eb2728" stroke-width="2px"/><text text-anchor="middle" pointer-events="none" font-family="sans-serif" dy="1.5625" font-size="25" fill="#FFFFFF"/><text text-anchor="middle" pointer-events="none" x="0" y="5" font-size="10px" fill="#FFFFFF" font-family="sans-serif"> Rimbik</text></g><g class="node" transform="translate(35.5576930380419,100.19455671324044)"><circle class="outline" cx="0" cy="0" r="25" fill="#8DCC93" stroke="#5db665" stroke-width="2px"/><text text-anchor="middle" pointer-events="none" font-family="sans-serif" dy="1.5625" font-size="25" fill="#2A2C34"/><text text-anchor="middle" pointer-events="none" x="0" y="5" font-size="10px" fill="#2A2C34" font-family="sans-serif"> BhikeBh…</text></g></g></svg>