<svg xmlns="http://www.w3.org/2000/svg" width="404.6524963378906" height="564.0128784179688" viewBox="-82.88916015625 -156.42062377929688 404.6524963378906 564.0128784179688"><title>Neo4j Graph Visualization</title><desc>Created using Neo4j (http://www.neo4j.com/)</desc><g class="layer relationships"><g class="relationship" transform="translate(292.7633410984071 286.8089015944831) rotate(486.79824494583863)"><path class="outline" fill="#A5ABB6" stroke="none" d="M 25 0.5 L 26.217141259405565 0.5 L 26.217141259405565 -0.5 L 25 -0.5 Z M 81.40464125940557 0.5 L 82.62178251881113 0.5 L 82.62178251881113 3.5 L 89.62178251881113 0 L 82.62178251881113 -3.5 L 82.62178251881113 -0.5 L 81.40464125940557 -0.5 Z"/><text text-anchor="middle" pointer-events="none" font-size="8px" fill="#000000" x="53.810891259405565" y="3" transform="rotate(180 53.810891259405565 0)" font-family="sans-serif">DESTINATI…</text></g><g class="relationship" transform="translate(292.7633410984071 286.8089015944831) rotate(227.1160248929063)"><path class="outline" fill="#A5ABB6" stroke="none" d="M 25 0.5 L 34.62077490752926 0.5 L 34.62077490752926 -0.5 L 25 -0.5 Z M 69.06608740752927 0.5 L 78.68686231505852 0.5 L 78.68686231505852 3.5 L 85.68686231505852 0 L 78.68686231505852 -3.5 L 78.68686231505852 -0.5 L 69.06608740752927 -0.5 Z"/><text text-anchor="middle" pointer-events="none" font-size="8px" fill="#000000" x="51.84343115752926" y="3" transform="rotate(180 51.84343115752926 0)" font-family="sans-serif">ORIGIN</text></g><g class="relationship" transform="translate(206.13871131080498 80.83436386757121) rotate(444.8289715312699)"><path class="outline" fill="#A5ABB6" stroke="none" d="M 25 0.5 L 29.59669003754108 0.5 L 29.59669003754108 -0.5 L 25 -0.5 Z M 88.78419003754108 0.5 L 93.38088007508216 0.5 L 93.38088007508216 3.5 L 100.38088007508216 0 L 93.38088007508216 -3.5 L 93.38088007508216 -0.5 L 88.78419003754108 -0.5 Z"/><text text-anchor="middle" pointer-events="none" font-size="8px" fill="#000000" x="59.19044003754108" y="3" font-family="sans-serif">DESTINATION</text></g><g class="relationship" transform="translate(206.13871131080498 80.83436386757121) rotate(194.61576655368776)"><path class="outline" fill="#A5ABB6" stroke="none" d="M 25 0.5 L 45.79709477774432 0.5 L 45.79709477774432 -0.5 L 25 -0.5 Z M 80.24240727774432 0.5 L 101.03950205548864 0.5 L 101.03950205548864 3.5 L 108.03950205548864 0 L 101.03950205548864 -3.5 L 101.03950205548864 -0.5 L 80.24240727774432 -0.5 Z"/><text text-anchor="middle" pointer-events="none" font-size="8px" fill="#000000" x="63.01975102774432" y="3" transform="rotate(180 63.01975102774432 0)" font-family="sans-serif">ORIGIN</text></g><g class="relationship" transform="translate(112.32927572661245 -86.91981418640128) rotate(464.58907339332507)"><path class="outline" fill="#A5ABB6" stroke="none" d="M 25 0.5 L 48.60442635296677 0.5 L 48.60442635296677 -0.5 L 25 -0.5 Z M 83.04973885296677 0.5 L 106.65416520593354 0.5 L 106.65416520593354 3.5 L 113.65416520593354 0 L 106.65416520593354 -3.5 L 106.65416520593354 -0.5 L 83.04973885296677 -0.5 Z"/><text text-anchor="middle" pointer-events="none" font-size="8px" fill="#000000" x="65.82708260296677" y="3" transform="rotate(180 65.82708260296677 0)" font-family="sans-serif">ORIGIN</text></g><g class="relationship" transform="translate(112.32927572661245 -86.91981418640128) rotate(197.37773226284247)"><path class="outline" fill="#A5ABB6" stroke="none" d="M 25 0.5 L 34.70818974877196 0.5 L 34.70818974877196 -0.5 L 25 -0.5 Z M 93.89568974877196 0.5 L 103.60387949754391 0.5 L 103.60387949754391 3.5 L 110.60387949754391 0 L 103.60387949754391 -3.5 L 103.60387949754391 -0.5 L 93.89568974877196 -0.5 Z"/><text text-anchor="middle" pointer-events="none" font-size="8px" fill="#000000" x="64.30193974877196" y="3" transform="rotate(180 64.30193974877196 0)" font-family="sans-serif">DESTINATION</text></g><g class="relationship" transform="translate(59.593055523544905 -58.80606329681547) rotate(440.46777033554287)"><path class="outline" fill="#A5ABB6" stroke="none" d="M 25 0.5 L 33.05477965788262 0.5 L 33.05477965788262 -0.5 L 25 -0.5 Z M 67.50009215788262 0.5 L 75.55487181576524 0.5 L 75.55487181576524 3.5 L 82.55487181576524 0 L 75.55487181576524 -3.5 L 75.55487181576524 -0.5 L 67.50009215788262 -0.5 Z"/><text text-anchor="middle" pointer-events="none" font-size="8px" fill="#000000" x="50.27743590788262" y="3" font-family="sans-serif">ORIGIN</text></g><g class="relationship" transform="translate(59.593055523544905 -58.80606329681547) rotate(221.82337361273642)"><path class="outline" fill="#A5ABB6" stroke="none" d="M 25 0.5 L 26.279834568192527 0.5 L 26.279834568192527 -0.5 L 25 -0.5 Z M 69.61577206819253 0.5 L 70.89560663638505 0.5 L 70.89560663638505 3.5 L 77.89560663638505 0 L 70.89560663638505 -3.5 L 70.89560663638505 -0.5 L 69.61577206819253 -0.5 Z"/><text text-anchor="middle" pointer-events="none" font-size="8px" fill="#000000" x="47.94780331819253" y="3" transform="rotate(180 47.94780331819253 0)" font-family="sans-serif">DESTIN…</text></g><g class="relationship" transform="translate(149.8870082470255 303.8297766885657) rotate(405.2094035362622)"><path class="outline" fill="#A5ABB6" stroke="none" d="M 25 0.5 L 27.50493572682852 0.5 L 27.50493572682852 -0.5 L 25 -0.5 Z M 70.84087322682852 0.5 L 73.34580895365704 0.5 L 73.34580895365704 3.5 L 80.34580895365704 0 L 73.34580895365704 -3.5 L 73.34580895365704 -0.5 L 70.84087322682852 -0.5 Z"/><text text-anchor="middle" pointer-events="none" font-size="8px" fill="#000000" x="49.17290447682852" y="3" font-family="sans-serif">DESTIN…</text></g><g class="relationship" transform="translate(149.8870082470255 303.8297766885657) rotate(304.5447244758017)"><path class="outline" fill="#A5ABB6" stroke="none" d="M 25 0.5 L 38.84196042983267 0.5 L 38.84196042983267 -0.5 L 25 -0.5 Z M 73.28727292983267 0.5 L 87.12923335966534 0.5 L 87.12923335966534 3.5 L 94.12923335966534 0 L 87.12923335966534 -3.5 L 87.12923335966534 -0.5 L 73.28727292983267 -0.5 Z"/><text text-anchor="middle" pointer-events="none" font-size="8px" fill="#000000" x="56.06461667983267" y="3" font-family="sans-serif">ORIGIN</text></g><g class="relationship" transform="translate(93.61244246772856 172.18015805295133) rotate(375.1490648146775)"><path class="outline" fill="#A5ABB6" stroke="none" d="M 25 0.5 L 31.048609742746123 0.5 L 31.048609742746123 -0.5 L 25 -0.5 Z M 90.23610974274612 0.5 L 96.28471948549225 0.5 L 96.28471948549225 3.5 L 103.28471948549225 0 L 96.28471948549225 -3.5 L 96.28471948549225 -0.5 L 90.23610974274612 -0.5 Z"/><text text-anchor="middle" pointer-events="none" font-size="8px" fill="#000000" x="60.64235974274612" y="3" font-family="sans-serif">DESTINATION</text></g><g class="relationship" transform="translate(93.61244246772856 172.18015805295133) rotate(262.6071105615161)"><path class="outline" fill="#A5ABB6" stroke="none" d="M 25 0.5 L 42.2591035108496 0.5 L 42.2591035108496 -0.5 L 25 -0.5 Z M 76.7044160108496 0.5 L 93.9635195216992 0.5 L 93.9635195216992 3.5 L 100.9635195216992 0 L 93.9635195216992 -3.5 L 93.9635195216992 -0.5 L 76.7044160108496 -0.5 Z"/><text text-anchor="middle" pointer-events="none" font-size="8px" fill="#000000" x="59.4817597608496" y="3" transform="rotate(180 59.4817597608496 0)" font-family="sans-serif">ORIGIN</text></g><g class="relationship" transform="translate(6.100839049862308 -27.99390813693909) rotate(406.54541951879)"><path class="outline" fill="#A5ABB6" stroke="none" d="M 25 0.5 L 31.113415949995684 0.5 L 31.113415949995684 -0.5 L 25 -0.5 Z M 65.55872844999568 0.5 L 71.67214439999137 0.5 L 71.67214439999137 3.5 L 78.67214439999137 0 L 71.67214439999137 -3.5 L 71.67214439999137 -0.5 L 65.55872844999568 -0.5 Z"/><text text-anchor="middle" pointer-events="none" font-size="8px" fill="#000000" x="48.336072199995684" y="3" font-family="sans-serif">ORIGIN</text></g><g class="relationship" transform="translate(6.100839049862308 -27.99390813693909) rotate(256.8733887109221)"><path class="outline" fill="#A5ABB6" stroke="none" d="M 25 0.5 L 25.879216094403738 0.5 L 25.879216094403738 -0.5 L 25 -0.5 Z M 69.21515359440374 0.5 L 70.09436968880748 0.5 L 70.09436968880748 3.5 L 77.09436968880748 0 L 70.09436968880748 -3.5 L 70.09436968880748 -0.5 L 69.21515359440374 -0.5 Z"/><text text-anchor="middle" pointer-events="none" font-size="8px" fill="#000000" x="47.54718484440374" y="3" transform="rotate(180 47.54718484440374 0)" font-family="sans-serif">DESTIN…</text></g><g class="relationship" transform="translate(-53.889154649288166 -29.065638845723935) rotate(390.17219379583526)"><path class="outline" fill="#A5ABB6" stroke="none" d="M 25 0.5 L 55.21181138185371 0.5 L 55.21181138185371 -0.5 L 25 -0.5 Z M 89.6571238818537 0.5 L 119.86893526370741 0.5 L 119.86893526370741 3.5 L 126.86893526370741 0 L 119.86893526370741 -3.5 L 119.86893526370741 -0.5 L 89.6571238818537 -0.5 Z"/><text text-anchor="middle" pointer-events="none" font-size="8px" fill="#000000" x="72.4344676318537" y="3" font-family="sans-serif">ORIGIN</text></g><g class="relationship" transform="translate(-53.889154649288166 -29.065638845723935) rotate(290.5156235191506)"><path class="outline" fill="#A5ABB6" stroke="none" d="M 25 0.5 L 27.33973185906305 0.5 L 27.33973185906305 -0.5 L 25 -0.5 Z M 70.67566935906305 0.5 L 73.0154012181261 0.5 L 73.0154012181261 3.5 L 80.0154012181261 0 L 73.0154012181261 -3.5 L 73.0154012181261 -0.5 L 70.67566935906305 -0.5 Z"/><text text-anchor="middle" pointer-events="none" font-size="8px" fill="#000000" x="49.00770060906305" y="3" font-family="sans-serif">DESTIN…</text></g><g class="relationship" transform="translate(154.34468904891537 124.32094456119734) rotate(412.2146991198792)"><path class="outline" fill="#A5ABB6" stroke="none" d="M 25 0.5 L 26.320549935096494 0.5 L 26.320549935096494 -0.5 L 25 -0.5 Z M 69.6564874350965 0.5 L 70.97703737019299 0.5 L 70.97703737019299 3.5 L 77.97703737019299 0 L 70.97703737019299 -3.5 L 70.97703737019299 -0.5 L 69.6564874350965 -0.5 Z"/><text text-anchor="middle" pointer-events="none" font-size="8px" fill="#000000" x="47.988518685096494" y="3" font-family="sans-serif">DESTIN…</text></g><g class="relationship" transform="translate(154.34468904891537 124.32094456119734) rotate(225.04349261580433)"><path class="outline" fill="#A5ABB6" stroke="none" d="M 25 0.5 L 33.723690506039055 0.5 L 33.723690506039055 -0.5 L 25 -0.5 Z M 68.16900300603905 0.5 L 76.89269351207811 0.5 L 76.89269351207811 3.5 L 83.89269351207811 0 L 76.89269351207811 -3.5 L 76.89269351207811 -0.5 L 68.16900300603905 -0.5 Z"/><text text-anchor="middle" pointer-events="none" font-size="8px" fill="#000000" x="50.946346756039055" y="3" transform="rotate(180 50.946346756039055 0)" font-family="sans-serif">ORIGIN</text></g><g class="relationship" transform="translate(-35.24535194410265 27.657504841870644) rotate(369.87320718075796)"><path class="outline" fill="#A5ABB6" stroke="none" d="M 25 0.5 L 36.44895225483855 0.5 L 36.44895225483855 -0.5 L 25 -0.5 Z M 70.89426475483856 0.5 L 82.3432170096771 0.5 L 82.3432170096771 3.5 L 89.3432170096771 0 L 82.3432170096771 -3.5 L 82.3432170096771 -0.5 L 70.89426475483856 -0.5 Z"/><text text-anchor="middle" pointer-events="none" font-size="8px" fill="#000000" x="53.67160850483855" y="3" font-family="sans-serif">ORIGIN</text></g><g class="relationship" transform="translate(-35.24535194410265 27.657504841870644) rotate(276.6791151831736)"><path class="outline" fill="#A5ABB6" stroke="none" d="M 25 0.5 L 44.97515364194791 0.5 L 44.97515364194791 -0.5 L 25 -0.5 Z M 104.16265364194791 0.5 L 124.13780728389582 0.5 L 124.13780728389582 3.5 L 131.13780728389582 0 L 124.13780728389582 -3.5 L 124.13780728389582 -0.5 L 104.16265364194791 -0.5 Z"/><text text-anchor="middle" pointer-events="none" font-size="8px" fill="#000000" x="74.56890364194791" y="3" font-family="sans-serif">DESTINATION</text></g></g><g class="layer nodes"><g class="node" transform="translate(224.10499989308815,378.5922618005882)"><circle class="outline" cx="0" cy="0" r="25" fill="#ECB5C9" stroke="#da7298" stroke-width="2px"/><text text-anchor="middle" pointer-events="none" font-family="sans-serif" dy="1.5625" font-size="25" fill="#2A2C34"/><text text-anchor="middle" pointer-events="none" x="0" y="5" font-size="10px" fill="#2A2C34" font-family="sans-serif"> LAX</text></g><g class="node" transform="translate(-17.08516501265909,-127.42061248626182)"><circle class="outline" cx="0" cy="0" r="25" fill="#ECB5C9" stroke="#da7298" stroke-width="2px"/><text text-anchor="middle" pointer-events="none" font-family="sans-serif" dy="1.5625" font-size="25" fill="#2A2C34"/><text text-anchor="middle" pointer-events="none" x="0" y="5" font-size="10px" fill="#2A2C34" font-family="sans-serif"> DAY</text></g><g class="node" transform="translate(292.7633410984071,286.8089015944831)"><circle class="outline" cx="0" cy="0" r="25" fill="#4C8EDA" stroke="#2870c2" stroke-width="2px"/><text text-anchor="middle" pointer-events="none" font-family="sans-serif" dy="1.5625" font-size="25" fill="#FFFFFF"/><text text-anchor="middle" pointer-events="none" x="0" y="5" font-size="10px" fill="#FFFFFF" font-family="sans-serif"> 11/30/20…</text></g><g class="node" transform="translate(217.43916478535775,205.7049562409223)"><circle class="outline" cx="0" cy="0" r="25" fill="#ECB5C9" stroke="#da7298" stroke-width="2px"/><text text-anchor="middle" pointer-events="none" font-family="sans-serif" dy="1.5625" font-size="25" fill="#2A2C34"/><text text-anchor="middle" pointer-events="none" x="0" y="5" font-size="10px" fill="#2A2C34" font-family="sans-serif"> ORD</text></g><g class="node" transform="translate(206.13871131080498,80.83436386757121)"><circle class="outline" cx="0" cy="0" r="25" fill="#4C8EDA" stroke="#2870c2" stroke-width="2px"/><text text-anchor="middle" pointer-events="none" font-family="sans-serif" dy="1.5625" font-size="25" fill="#FFFFFF"/><text text-anchor="middle" pointer-events="none" x="0" y="5" font-size="10px" fill="#FFFFFF" font-family="sans-serif"> 11/29/20…</text></g><g class="node" transform="translate(77.40439816312548,47.26375580683507)"><circle class="outline" cx="0" cy="0" r="25" fill="#ECB5C9" stroke="#da7298" stroke-width="2px"/><text text-anchor="middle" pointer-events="none" font-family="sans-serif" dy="1.5625" font-size="25" fill="#2A2C34"/><text text-anchor="middle" pointer-events="none" x="0" y="5" font-size="10px" fill="#2A2C34" font-family="sans-serif"> MSP</text></g><g class="node" transform="translate(112.32927572661245,-86.91981418640128)"><circle class="outline" cx="0" cy="0" r="25" fill="#4C8EDA" stroke="#2870c2" stroke-width="2px"/><text text-anchor="middle" pointer-events="none" font-family="sans-serif" dy="1.5625" font-size="25" fill="#FFFFFF"/><text text-anchor="middle" pointer-events="none" x="0" y="5" font-size="10px" fill="#FFFFFF" font-family="sans-serif"> 11/25/20…</text></g><g class="node" transform="translate(59.593055523544905,-58.80606329681547)"><circle class="outline" cx="0" cy="0" r="25" fill="#4C8EDA" stroke="#2870c2" stroke-width="2px"/><text text-anchor="middle" pointer-events="none" font-family="sans-serif" dy="1.5625" font-size="25" fill="#FFFFFF"/><text text-anchor="middle" pointer-events="none" x="0" y="5" font-size="10px" fill="#FFFFFF" font-family="sans-serif"> 11/11/20…</text></g><g class="node" transform="translate(149.8870082470255,303.8297766885657)"><circle class="outline" cx="0" cy="0" r="25" fill="#4C8EDA" stroke="#2870c2" stroke-width="2px"/><text text-anchor="middle" pointer-events="none" font-family="sans-serif" dy="1.5625" font-size="25" fill="#FFFFFF"/><text text-anchor="middle" pointer-events="none" x="0" y="5" font-size="10px" fill="#FFFFFF" font-family="sans-serif"> 11/29/20…</text></g><g class="node" transform="translate(93.61244246772856,172.18015805295133)"><circle class="outline" cx="0" cy="0" r="25" fill="#4C8EDA" stroke="#2870c2" stroke-width="2px"/><text text-anchor="middle" pointer-events="none" font-family="sans-serif" dy="1.5625" font-size="25" fill="#FFFFFF"/><text text-anchor="middle" pointer-events="none" x="0" y="5" font-size="10px" fill="#FFFFFF" font-family="sans-serif"> 11/29/20…</text></g><g class="node" transform="translate(6.100839049862308,-27.99390813693909)"><circle class="outline" cx="0" cy="0" r="25" fill="#4C8EDA" stroke="#2870c2" stroke-width="2px"/><text text-anchor="middle" pointer-events="none" font-family="sans-serif" dy="1.5625" font-size="25" fill="#FFFFFF"/><text text-anchor="middle" pointer-events="none" x="0" y="5" font-size="10px" fill="#FFFFFF" font-family="sans-serif"> 11/16/20…</text></g><g class="node" transform="translate(-53.889154649288166,-29.065638845723935)"><circle class="outline" cx="0" cy="0" r="25" fill="#4C8EDA" stroke="#2870c2" stroke-width="2px"/><text text-anchor="middle" pointer-events="none" font-family="sans-serif" dy="1.5625" font-size="25" fill="#FFFFFF"/><text text-anchor="middle" pointer-events="none" x="0" y="5" font-size="10px" fill="#FFFFFF" font-family="sans-serif"> 11/20/20…</text></g><g class="node" transform="translate(154.34468904891537,124.32094456119734)"><circle class="outline" cx="0" cy="0" r="25" fill="#4C8EDA" stroke="#2870c2" stroke-width="2px"/><text text-anchor="middle" pointer-events="none" font-family="sans-serif" dy="1.5625" font-size="25" fill="#FFFFFF"/><text text-anchor="middle" pointer-events="none" x="0" y="5" font-size="10px" fill="#FFFFFF" font-family="sans-serif"> 11/30/20…</text></g><g class="node" transform="translate(-35.24535194410265,27.657504841870644)"><circle class="outline" cx="0" cy="0" r="25" fill="#4C8EDA" stroke="#2870c2" stroke-width="2px"/><text text-anchor="middle" pointer-events="none" font-family="sans-serif" dy="1.5625" font-size="25" fill="#FFFFFF"/><text text-anchor="middle" pointer-events="none" x="0" y="5" font-size="10px" fill="#FFFFFF" font-family="sans-serif"> 11/23/20…</text></g></g></svg>